<svg xmlns="http://www.w3.org/2000/svg" viewBox="0 0 442.08 302.28"><defs><style>.a{fill:#d02c27;}.b{fill:#fff;}</style></defs><path class="a" d="M551.43,175.44l-33.56,0-.24-47.21,7.83-17.72c-2.89-7-11.8-9.2-17.62-9.14s-14.72,2.1-17.61,9.14l7.83,17.72-.24,47.21-33.57,0c-3.57,2.14-2.82,11.46.05,13.39l19-.08,1.78,2.46c.62.87,1.6,2.73,1.61,2.74L488.5,369c1.42,11.32,6.73,22.6,19.34,34.59,12.62-12,17.93-23.27,19.35-34.59L529,194s1-1.87,1.62-2.74l1.77-2.46,19,.08C554.25,186.9,555,177.58,551.43,175.44Z" transform="translate(-175.95 -101.33)"/><path class="b" d="M302.13,291.46c.91-43.52-2.75-79.55.18-88,4.39-5.39,11.7-15,11.7-15s-49.19-35.29-74.61-41.69c-11.7-2.19-59.8,41.69-59.8,41.69l.92,15.09s23.77-29.35,60.8-18.83c.77.22,1.55.46,2.32.73-13,11.34-36.08,30.93-44.47,33.19C210.05,239.25,212.52,317,176,378.23l7.31,5.94s51.57-55.77,54.86-123.43h37.49l-1.83,51.66,22.77,23.31,18.38-30.17S302.55,295.4,302.13,291.46ZM254.84,189.18Zm18.94,41.38H239S238.6,202.09,253.8,190a165.4,165.4,0,0,1,20.53,13.53Z" transform="translate(-175.95 -101.33)"/><path class="b" d="M323.34,202.49l26.51-17.68c-2.74,13.29-2.1,119.9-2.1,119.9l13.38,10.06-18.92,24.69L318,316.78s7.31-5.8,8.25-13.9c1.35-11.52,3.9-90.88-3-100.39Z" transform="translate(-175.95 -101.33)"/><path class="b" d="M431.87,292.82c.82-46.17-24.14-64.91-24.14-64.91l-13.35,12.71c-.64-38.31,3.9-45.81,11.52-52.49-1.37-1.46-3.23-3.63-4.93-3.29-2.69.55-35.69,19.75-35.69,19.75s-1.23,4.89.3,5,6.86,6.36,6.86,6.36,1.46,76.62,1,82.56c-.56,7.37-6,19.85-6,19.85s34.93,21.12,35.84,21.12,28.62-46.64,28.62-46.64Zm-26.06,16.46c-6.3,0-11.79-10-11.79-10-.92-14.63.41-45.14.91-44.81,11,7.32,18.18,25,14.17,15.46,4.67,11,13.17,39.49-3.29,39.4Z" transform="translate(-175.95 -101.33)"/><path class="b" d="M470.37,202.21l-30.63,27.43s4.29-37.21,6.12-40.14c.73-.13,24.51,12.71,24.51,12.71Z" transform="translate(-175.95 -101.33)"/><path class="b" d="M449,231l-11.5,18.3s4.09,4.67,4.55,8.32.55,40.42-.37,53.58c-.31,4.52-4.18,9.42-4.18,9.42L455,338.49l16.28-25.23s-8.4-6.11-8.23-10c1.28-28.39.36-55.27,4.94-61.63,0,0-18.66-11.58-19-10.71Z" transform="translate(-175.95 -101.33)"/><path class="b" d="M511.51,231c-1.7,1-31.65,27.48-31.65,27.48s1.66,34.67.93,42c-.6,6-6,17.44-6,17.44s35.91,22.15,35.76,22.17,16.46-25,30.3-48.67c3-30.72-25.72-62.46-29.38-60.41Zm9,75.94c-4.57,6.4-13.8,0-17.83-3.3-3.82-4.27-.8-39.66-1.46-48.46,23.41,18.38,23.87,45.36,19.29,51.76Z" transform="translate(-175.95 -101.33)"/><path class="b" d="M547.62,249.85,560,230.65l17.28,14.81,10.15-14.35s26.88,23.93,26.52,23.68c-5.13,7-3.38,40.77-3.66,49-.18,5.39,7.77,9.14,7.77,9.14l-16.92,25.51s-12.34-8.14-12.34-23.68.37-49.37.37-49.37l-10.43-11.77s-2.58,2.09-3.56,19.9c-.92,16.55-1.65,31.18.27,33.47a70.44,70.44,0,0,0,6.4,6.4L566,337.63l-17.92-17.37s5.95-7.23,5.49-16-.09-48.09-.09-48.09l-5.86-6.31Z" transform="translate(-175.95 -101.33)"/><path class="b" d="M270.94,369.28c0-4.5-4.5-8.43-13.89-8.43-8.38,0-14.26,3.4-14.26,8.51,0,4.6,5,8.83,14,8.83,7.84,0,14.1-3.75,14.1-8.91Zm-4.06.79c0,5-4.63,7.34-9.51,7.34-8,0-10-4.7-10-8.48,0-5.6,5-7.14,9.23-7.14,7.77,0,10.29,4.07,10.29,8.28Z" transform="translate(-175.95 -101.33)"/><path class="b" d="M337.67,367.34c0-1.18-.08-4.35.61-5.26a4.84,4.84,0,0,1,2.28-.54l.57-.05a.35.35,0,0,0-.08-.64c-1.39,0-2.44.08-4.19.08-1.54,0-2.92,0-4.79-.08a.34.34,0,0,0-.08.64l.69.05c1.62.13,2.28.28,2.52.51.77.77.81,4.09.81,5.29v5.46c0,.54,0,.95-.16,1.08h-.08c-1.91-1.23-3.9-2.66-6.71-4.63l-3.94-2.78c-1.34-1-6.14-4.32-6.95-5.62-.53,0-1.22.08-1.87.08s-2.89,0-4.59-.08a.35.35,0,0,0-.08.64l.69.05a6,6,0,0,1,2.52.61,1.84,1.84,0,0,1,.89,1.84v7.38c0,1.23,0,4.35-.53,5.27-.2.28-.85.43-1.79.51l-1.09.07a.37.37,0,0,0,.08.65c1.42-.05,2.52-.09,4.22-.09,1.5,0,2.93,0,4.76.09a.37.37,0,0,0,.08-.65l-1.26-.07a3.66,3.66,0,0,1-2.08-.49c-.69-.77-.73-4.09-.73-5.29V365.8a4,4,0,0,1,.21-1.66h.08c.85.57,3.62,2.66,4.71,3.45l9.43,6.75c3.54,2.53,4.72,3.42,5.21,3.85.44,0,.68-.12.76-.28-.12-.66-.12-3.7-.12-4.47v-6.1Z" transform="translate(-175.95 -101.33)"/><path class="b" d="M385,374c0,2.68-.08,3-2.44,3.19l-1.22.07a.37.37,0,0,0,.09.64c2.27-.05,3.57-.07,5.28-.07h3.73c4.19,0,8.05,0,10.12.07.57-.69,1.07-3.8,1.07-4.09s-.67-.12-.91,0c-.81,1.3-1.34,2.59-2.15,2.89-.65.24-1.5.34-5,.34-3.21,0-4-.31-4.43-.59-.73-.48-.85-1.15-.85-2.76v-8.89c0-2.68.08-3.09,2.48-3.22l1-.05c.25-.11.16-.56-.08-.64-2,0-3.41.08-5,.08s-3,0-5.28-.08c-.25.08-.33.53-.09.64l1,.05c2.56.13,2.64.54,2.64,3.22V374Z" transform="translate(-175.95 -101.33)"/><path class="b" d="M445.71,373.9c0,2.71-.08,3.07-2.48,3.25l-1,.07a.39.39,0,0,0,.08.65c2-.05,3.42-.09,5.12-.09s3,0,5,.09c.24-.08.32-.54.08-.65l-1-.07c-2.39-.18-2.48-.54-2.48-3.25v-9.09c0-2.71.09-3.14,2.48-3.27l1-.05c.24-.11.16-.56-.08-.64-2,0-3.42.08-5,.08s-3.09,0-5.12-.08c-.24.08-.32.53-.08.64l1,.05c2.4.13,2.48.56,2.48,3.27v9.09Z" transform="translate(-175.95 -101.33)"/><path class="b" d="M519.81,367.34c0-1.18-.08-4.35.61-5.26a4.74,4.74,0,0,1,2.27-.54l.57-.05a.35.35,0,0,0-.08-.64c-1.38,0-2.44.08-4.18.08-1.54,0-2.92,0-4.8-.08a.34.34,0,0,0-.08.64l.69.05c1.63.13,2.28.28,2.52.51.78.77.82,4.09.82,5.29v5.46c0,.54,0,.95-.17,1.08h-.08c-1.91-1.23-3.9-2.66-6.71-4.63l-3.94-2.78c-1.34-1-6.14-4.32-6.95-5.62-.53,0-1.22.08-1.87.08s-2.88,0-4.59-.08a.35.35,0,0,0-.08.64l.69.05a5.94,5.94,0,0,1,2.52.61,1.85,1.85,0,0,1,.9,1.84v7.38c0,1.23,0,4.35-.53,5.27-.21.28-.85.43-1.79.51l-1.1.07a.37.37,0,0,0,.08.65c1.43-.05,2.52-.09,4.23-.09,1.5,0,2.92,0,4.75.09a.36.36,0,0,0,.08-.65l-1.26-.07a3.64,3.64,0,0,1-2.07-.49c-.69-.77-.73-4.09-.73-5.29V365.8a4.26,4.26,0,0,1,.2-1.66h.08c.86.57,3.62,2.66,4.72,3.45l9.43,6.75c3.54,2.53,4.71,3.42,5.2,3.85.45,0,.69-.12.77-.28-.12-.66-.12-3.7-.12-4.47v-6.1Z" transform="translate(-175.95 -101.33)"/><path class="b" d="M567.82,373.86c0,2.68-.21,3.06-2.52,3.19l-1.34.08a.37.37,0,0,0,.08.64c2.4,0,3.78-.08,5.52-.08h3.66c3.62,0,7.23,0,10.89.08a17.49,17.49,0,0,0,1.83-3.55,1,1,0,0,0-1-.18,7.84,7.84,0,0,1-2.88,2.48c-.9.28-2.08.38-5.2.38-3.58,0-4.43-.28-4.92-.59-.65-.43-.77-1.3-.77-2.65v-3.61c0-.66.12-.69,1.34-.69h2.36c1.58,0,5.69-.1,5.69-.1v-1h-7.95c-1.22,0-1.44.21-1.44-.5v-5.12c0-1,0-1,1.21-1h2.93a29.91,29.91,0,0,1,3.94.16c2.12.33,2.48,1.22,3.09,2.42a1.17,1.17,0,0,0,1-.05,18.69,18.69,0,0,0-.65-3.39c-.49.07-2.89.07-5.49.07h-7.64c-1.66,0-3,0-4.79-.07-.24.07-.32.53-.08.63l.65.06c2.4.17,2.48.56,2.48,3.22v9.19Z" transform="translate(-175.95 -101.33)"/></svg>